<svg width="200" height="200" viewBox="0 0 200 200" xmlns="http://www.w3.org/2000/svg" role="img" aria-label="QMS">
  <defs>
    <linearGradient id="bg" x1="0" y1="0" x2="200" y2="200" gradientUnits="userSpaceOnUse">
      <stop stop-color="#0f766e"/>
      <stop offset="1" stop-color="#31748f"/>
    </linearGradient>
    <linearGradient id="ship" x1="50" y1="80" x2="150" y2="160" gradientUnits="userSpaceOnUse">
      <stop stop-color="#ffffff"/>
      <stop offset="1" stop-color="#d7fbf5"/>
    </linearGradient>
  </defs>
  <rect x="18" y="18" width="164" height="164" rx="42" fill="url(#bg)"/>
  <path d="M45 130 L60 105 L140 105 L155 130 Z" fill="url(#ship)" opacity="0.9"/>
  <rect x="55" y="85" width="90" height="20" rx="4" fill="#ffffff"/>
  <rect x="65" y="70" width="16" height="35" rx="3" fill="#ffffff" opacity="0.85"/>
  <rect x="92" y="75" width="16" height="30" rx="3" fill="#ffffff" opacity="0.75"/>
  <rect x="119" y="68" width="16" height="37" rx="3" fill="#ffffff" opacity="0.9"/>
  <path d="M40 135 Q100 148 160 135 Q100 155 40 135 Z" fill="#ffffff" opacity="0.3"/>
  <path d="M155 105 L170 85" stroke="#ffffff" stroke-width="4" stroke-linecap="round" opacity="0.7"/>
  <circle cx="170" cy="82" r="3" fill="#ffffff" opacity="0.7"/>
</svg>
